<svg width="96" height="94" viewBox="0 0 96 94" fill="none" xmlns="http://www.w3.org/2000/svg" xmlns:xlink="http://www.w3.org/1999/xlink">
<path d="M74.667,57.444L80.001,57.444L80.001,78.333L58.667,78.333L58.667,73.111L53.334,73.111L53.334,83.556L85.334,83.556L85.334,52.222L74.667,52.222L74.667,57.444Z" fill="#475762"/>
<path d="M37.333,78.333L15.999,78.333L15.999,57.444L21.333,57.444L21.333,52.222L10.666,52.222L10.666,83.556L42.666,83.556L42.666,73.111L37.333,73.111L37.333,78.333Z" fill="#475762"/>
<path d="M21.333,36.556L15.999,36.556L15.999,15.667L37.333,15.667L37.333,20.889L42.666,20.889L42.666,10.444L10.666,10.444L10.666,41.778L21.333,41.778L21.333,36.556Z" fill="#475762"/>
<path d="M53.334,10.444L53.334,20.889L58.667,20.889L58.667,15.667L80.001,15.667L80.001,36.556L74.667,36.556L74.667,41.778L85.334,41.778L85.334,10.444L53.334,10.444Z" fill="#475762"/>
<rect  x="29.334" y="28.722" width="16" height="15.667" fill="#475762"/>
<rect  x="50.666" y="28.722" width="16" height="15.667" fill="#475762"/>
<rect  x="29.334" y="49.611" width="16" height="15.667" fill="#475762"/>
<rect  x="50.666" y="49.611" width="16" height="15.667" fill="#475762"/>
</svg>
