<svg width="116" height="90" viewBox="0 0 116 90" fill="none" xmlns="http://www.w3.org/2000/svg" xmlns:xlink="http://www.w3.org/1999/xlink">
<path d="M116,45C116,69.853 96.748,90 73,90C49.252,90 30,69.853 30,45C30,20.147 49.252,0 73,0C96.748,0 116,20.147 116,45Z" fill="#35736E" fill-opacity="0.2"/>
<path d="M34,0C27.114,0.012 20.394,1.677 14.726,4.775C9.058,7.874 4.707,12.26 2.248,17.356C-0.212,22.452 -0.665,28.019 0.948,33.323C1.781,36.064 3.146,38.669 4.977,41.049C8.324,45.401 11.282,50.329 11.282,55.82L11.282,64.512C11.282,73.358 20.692,79.03 28.514,74.898L28.514,74.898C31.947,73.085 36.053,73.085 39.486,74.898L39.486,74.898C47.308,79.03 56.718,73.358 56.718,64.512L56.718,55.82C56.718,50.329 59.676,45.401 63.023,41.049C64.854,38.669 66.219,36.064 67.052,33.323C68.665,28.019 68.212,22.452 65.752,17.356C63.293,12.26 58.942,7.874 53.274,4.775C47.606,1.677 40.886,0.012 34,0ZM49.145,61.344C49.145,66.54 43.623,69.873 39.026,67.453L38.203,67.02L38.203,67.02C35.573,65.631 32.427,65.631 29.797,67.02L29.797,67.02L28.974,67.453C24.377,69.873 18.855,66.54 18.855,61.344L18.855,61.344C18.855,56.461 23.859,53.061 28.704,53.673C30.45,53.894 32.221,54.006 34,54.006C35.779,54.006 37.55,53.894 39.296,53.673C44.141,53.061 49.145,56.461 49.145,61.344L49.145,61.344ZM52.515,42C48.136,45.387 42.413,47.469 36.317,47.893C30.22,48.317 24.127,47.056 19.071,44.325C14.014,41.594 10.306,37.56 8.577,32.909C6.847,28.258 7.202,23.276 9.581,18.809C11.96,14.342 16.218,10.664 21.63,8.401C27.042,6.138 33.276,5.429 39.273,6.393C45.27,7.358 50.662,9.937 54.532,13.694C58.402,17.45 60.512,22.151 60.504,27C60.5,29.796 59.791,32.563 58.419,35.138C57.047,37.714 55.04,40.047 52.515,42Z" fill="#000000"/>
</svg>
