<svg width="130" height="86" viewBox="0 0 130 86" fill="none" xmlns="http://www.w3.org/2000/svg" xmlns:xlink="http://www.w3.org/1999/xlink">
<path d="M129.198,42.013C129.198,65.217 108.046,84.027 81.953,84.027C55.861,84.027 34.709,65.217 34.709,42.013C34.709,18.81 55.861,0 81.953,0C108.046,0 129.198,18.81 129.198,42.013Z" fill="#35736E" fill-opacity="0.2"/>
<path d="M43.437,0C34.846,0 26.448,2.291 19.305,6.583C12.162,10.874 6.594,16.974 3.307,24.111C0.019,31.248 -0.841,39.101 0.835,46.677C2.511,54.253 6.648,61.213 12.722,66.675C20.878,73.96 31.912,78.041 43.408,78.025C54.904,78.008 65.924,73.894 74.053,66.585C82.181,59.276 86.756,49.367 86.775,39.031C86.794,28.694 82.255,18.773 74.153,11.44C70.129,7.802 65.342,4.917 60.069,2.954C54.797,0.99 49.144,-0.014 43.437,0ZM25.965,9.099C32.148,6.18 36.573,13.189 32.89,18.949L30.015,23.446C26.906,28.309 19.801,28.307 16.694,23.442L16.694,23.442C14.827,20.518 15.032,16.648 17.681,14.407C20.155,12.314 22.941,10.527 25.965,9.099L25.965,9.099ZM44.788,25.997C49.211,25.997 53.331,28.245 55.723,31.966L55.723,31.966C58.464,36.229 58.45,41.739 55.731,46.015L55.731,46.015C53.318,49.809 49.109,52.144 44.613,52.144L42.163,52.144C37.715,52.144 33.575,49.876 31.181,46.128L31.181,46.128C28.448,41.849 28.466,36.347 31.201,32.07L31.201,32.07C33.611,28.3 37.791,25.997 42.266,25.997L44.788,25.997ZM5.839,37.691C6.146,30.89 14.409,30.353 18.074,36.091L20.51,39.906C23.892,45.202 20.089,52.144 13.805,52.144L13.805,52.144C10.714,52.144 7.813,50.376 6.971,47.402C6.075,44.24 5.691,40.969 5.839,37.691L5.839,37.691ZM23.42,67.695C17.719,64.471 20.922,57.367 27.471,57.367L35.038,57.367C40.875,57.367 44.414,63.81 41.281,68.736L41.281,68.736C39.764,71.121 37.005,72.49 34.249,71.864C30.428,70.995 26.772,69.591 23.42,67.695L23.42,67.695ZM61.032,68.958C54.858,71.9 50.411,64.901 54.082,59.129L56.954,54.614C60.049,49.747 67.146,49.73 70.265,54.581L70.265,54.581C72.138,57.495 71.947,61.36 69.312,63.608C66.842,65.715 64.058,67.517 61.032,68.958L61.032,68.958ZM81.038,40.367C80.746,47.123 72.541,47.686 68.884,41.998L66.441,38.198C63.052,32.928 66.836,25.997 73.101,25.997L73.101,25.997C76.18,25.997 79.069,27.76 79.907,30.722C80.795,33.863 81.179,37.111 81.038,40.367L81.038,40.367ZM51.938,20.774C46.091,20.774 42.554,14.313 45.703,9.388L45.703,9.388C47.227,7.004 49.992,5.642 52.748,6.278C56.551,7.154 60.187,8.562 63.521,10.457L63.521,10.457C69.203,13.685 66.002,20.774 59.466,20.774L51.938,20.774Z" fill="#000000"/>
</svg>
