<svg width="132" height="86" viewBox="0 0 132 86" fill="none" xmlns="http://www.w3.org/2000/svg" xmlns:xlink="http://www.w3.org/1999/xlink">
<path d="M131.198,42.013C131.198,65.217 109.615,84.027 82.99,84.027C56.365,84.027 34.781,65.217 34.781,42.013C34.781,18.81 56.365,0 82.99,0C109.615,0 131.198,18.81 131.198,42.013Z" fill="#35736E" fill-opacity="0.2"/>
<path d="M50.209,78.024L48.638,79.263C49.017,79.744 49.596,80.025 50.209,80.024C50.822,80.024 51.401,79.743 51.78,79.261L50.209,78.024ZM51.96,17.431L53.674,18.462L53.674,18.462L51.96,17.431ZM58.977,11.486L58.186,9.649L58.184,9.65L58.977,11.486ZM95.492,10.497L96.286,8.661L96.284,8.661L95.492,10.497ZM97.833,12.479L99.547,11.448L99.541,11.438L97.833,12.479ZM97.828,61.944L96.118,60.906L96.113,60.915L97.828,61.944ZM95.492,63.926L94.698,62.09L94.697,62.091L95.492,63.926ZM64.848,65.01L65.345,66.947L65.348,66.946L64.848,65.01ZM59.32,67.513L58.178,65.871L58.177,65.872L59.32,67.513ZM53.288,74.111L51.718,72.873L51.717,72.874L53.288,74.111ZM48.457,17.431L50.171,16.4L50.171,16.4L48.457,17.431ZM41.435,11.486L42.227,9.649L42.226,9.649L41.435,11.486ZM4.925,10.497L4.133,8.661L4.132,8.661L4.925,10.497ZM2.584,12.479L0.87,11.448L0.87,11.448L2.584,12.479ZM2.584,61.944L0.87,62.975L0.87,62.976L2.584,61.944ZM4.925,63.926L4.132,65.762L4.133,65.762L4.925,63.926ZM35.564,65.01L35.065,66.946L35.068,66.947L35.564,65.01ZM41.102,67.513L39.96,69.154L39.96,69.154L41.102,67.513ZM47.091,74.07L45.518,75.306L45.52,75.308L47.091,74.07ZM48.209,31.77L48.209,78.024L52.209,78.024L52.209,31.77L48.209,31.77ZM52.209,31.77C52.209,27.922 52.211,25.178 52.418,23.027C52.622,20.912 53.012,19.562 53.674,18.462L50.246,16.4C49.157,18.211 48.67,20.221 48.437,22.643C48.206,25.03 48.209,28 48.209,31.77L52.209,31.77ZM53.674,18.462C54.976,16.297 57.091,14.479 59.77,13.322L58.184,9.65C54.82,11.103 52.023,13.446 50.246,16.4L53.674,18.462ZM59.768,13.323C61.193,12.709 62.924,12.362 65.503,12.184C68.099,12.004 71.392,12.003 75.92,12.003L75.92,8.003C71.448,8.003 67.993,8.002 65.227,8.193C62.447,8.385 60.205,8.779 58.186,9.649L59.768,13.323ZM75.92,12.003L89.847,12.003L89.847,8.003L75.92,8.003L75.92,12.003ZM89.847,12.003C91.374,12.003 92.418,12.004 93.226,12.06C94.019,12.115 94.425,12.215 94.7,12.334L96.284,8.661C95.414,8.285 94.496,8.138 93.503,8.069C92.524,8.002 91.318,8.003 89.847,8.003L89.847,12.003ZM94.699,12.333C95.359,12.618 95.839,13.049 96.125,13.52L99.541,11.438C98.788,10.203 97.64,9.247 96.286,8.661L94.699,12.333ZM96.119,13.51C96.198,13.64 96.295,13.87 96.353,14.472C96.415,15.11 96.417,15.95 96.417,17.259L100.417,17.259C100.417,16.028 100.419,14.963 100.335,14.088C100.247,13.178 100.053,12.288 99.547,11.448L96.119,13.51ZM96.417,17.259L96.417,57.165L100.417,57.165L100.417,17.259L96.417,17.259ZM96.417,57.165C96.417,58.474 96.415,59.312 96.353,59.949C96.294,60.55 96.196,60.778 96.118,60.906L99.537,62.982C100.048,62.14 100.245,61.248 100.334,60.337C100.419,59.461 100.417,58.395 100.417,57.165L96.417,57.165ZM96.113,60.915C95.838,61.373 95.362,61.803 94.698,62.09L96.287,65.761C97.635,65.178 98.794,64.221 99.543,62.973L96.113,60.915ZM94.697,62.091C94.426,62.208 94.023,62.308 93.232,62.363C92.425,62.419 91.382,62.42 89.857,62.42L89.857,66.42C91.326,66.42 92.531,66.421 93.508,66.354C94.5,66.285 95.418,66.138 96.287,65.761L94.697,62.091ZM89.857,62.42L74.682,62.42L74.682,66.42L89.857,66.42L89.857,62.42ZM74.682,62.42C69.761,62.42 66.934,62.405 64.348,63.073L65.348,66.946C67.325,66.435 69.544,66.42 74.682,66.42L74.682,62.42ZM64.35,63.073C62.112,63.647 60.013,64.594 58.178,65.871L60.462,69.155C61.887,68.164 63.545,67.409 65.345,66.947L64.35,63.073ZM58.177,65.872C56.035,67.364 54.437,69.421 51.718,72.873L54.859,75.349C57.721,71.717 58.92,70.229 60.463,69.154L58.177,65.872ZM51.717,72.874L48.637,76.788L51.78,79.261L54.86,75.348L51.717,72.874ZM52.209,31.77C52.209,28 52.211,25.03 51.98,22.643C51.747,20.221 51.26,18.211 50.171,16.4L46.743,18.462C47.405,19.562 47.795,20.912 47.999,23.027C48.206,25.178 48.209,27.922 48.209,31.77L52.209,31.77ZM50.171,16.4C48.392,13.445 45.593,11.101 42.227,9.649L40.642,13.322C43.323,14.479 45.44,16.297 46.743,18.462L50.171,16.4ZM42.226,9.649C40.209,8.779 37.969,8.385 35.189,8.193C32.424,8.002 28.969,8.003 24.497,8.003L24.497,12.003C29.025,12.003 32.318,12.004 34.913,12.184C37.492,12.362 39.221,12.709 40.643,13.322L42.226,9.649ZM24.497,8.003L10.57,8.003L10.57,12.003L24.497,12.003L24.497,8.003ZM10.57,8.003C9.099,8.003 7.893,8.002 6.914,8.069C5.921,8.138 5.003,8.285 4.133,8.661L5.717,12.334C5.992,12.215 6.398,12.115 7.191,12.06C7.999,12.004 9.043,12.003 10.57,12.003L10.57,8.003ZM4.132,8.661C2.782,9.243 1.621,10.2 0.87,11.448L4.297,13.51C4.573,13.052 5.052,12.621 5.717,12.334L4.132,8.661ZM0.87,11.448C0.364,12.288 0.17,13.178 0.082,14.088C-0.002,14.963 0,16.028 0,17.259L4,17.259C4,15.95 4.002,15.11 4.064,14.472C4.122,13.87 4.219,13.64 4.298,13.51L0.87,11.448ZM0,17.259L0,57.165L4,57.165L4,17.259L0,17.259ZM0,57.165C0,58.395 -0.002,59.46 0.082,60.335C0.17,61.245 0.364,62.135 0.87,62.975L4.298,60.913C4.219,60.783 4.122,60.553 4.064,59.951C4.002,59.313 4,58.473 4,57.165L0,57.165ZM0.87,62.976C1.621,64.223 2.782,65.18 4.132,65.762L5.717,62.089C5.052,61.802 4.573,61.371 4.297,60.913L0.87,62.976ZM4.133,65.762C5.003,66.138 5.919,66.285 6.911,66.354C7.887,66.421 9.091,66.42 10.56,66.42L10.56,62.42C9.035,62.42 7.993,62.419 7.188,62.363C6.397,62.308 5.993,62.208 5.717,62.089L4.133,65.762ZM10.56,66.42L25.735,66.42L25.735,62.42L10.56,62.42L10.56,66.42ZM25.735,66.42C30.872,66.42 33.081,66.435 35.065,66.946L36.063,63.073C33.472,62.405 30.657,62.42 25.735,62.42L25.735,66.42ZM35.068,66.947C36.869,67.408 38.539,68.165 39.96,69.154L42.245,65.872C40.409,64.593 38.297,63.645 36.06,63.072L35.068,66.947ZM39.96,69.154C41.496,70.224 42.685,71.699 45.518,75.306L48.664,72.835C45.969,69.404 44.383,67.359 42.245,65.871L39.96,69.154ZM45.52,75.308L48.638,79.263L51.779,76.786L48.662,72.832L45.52,75.308Z" fill="#000000"/>
</svg>
