<svg width="76" height="82" viewBox="0 0 76 82" fill="none" xmlns="http://www.w3.org/2000/svg" xmlns:xlink="http://www.w3.org/1999/xlink">
<path d="M33.968,68.019L11.172,48.802L-0.624,58.738L22.189,77.956C24.061,79.533 27.142,79.533 29.014,77.956L33.968,73.783C35.84,72.192 35.84,69.582 33.968,68.019Z" transform="rotate(180 17.374 63.97)" fill="#FEFDFE"/>
<path d="M68.472,48.577L74.651,43.371L67.61,37.44C74.27,29.359 73.342,18.166 64.794,10.965C55.201,2.884 39.612,2.884 30.003,10.965C20.394,19.046 20.411,32.178 30.003,40.273C38.551,47.474 51.838,48.256 61.431,42.646L68.472,48.577ZM34.774,36.198C27.816,30.336 27.816,20.832 34.774,14.984C41.732,9.123 53.014,9.123 59.956,14.984C66.914,20.846 66.914,30.35 59.956,36.198C53.014,42.059 41.732,42.059 34.774,36.198Z" transform="rotate(180 48.727 26.741)" fill="#FEFDFE"/>
</svg>
