<svg width="70" height="70" viewBox="0 0 70 70" fill="none" xmlns="http://www.w3.org/2000/svg" xmlns:xlink="http://www.w3.org/1999/xlink">
<path d="M8.75,35C8.75,20.503 20.503,8.75 35,8.75L35,8.75C49.497,8.75 61.25,20.503 61.25,35L61.25,35C61.25,49.497 49.497,61.25 35,61.25L35,61.25C20.503,61.25 8.75,49.497 8.75,35L8.75,35Z" fill="#7E869E" fill-opacity="0.5"/>
<circle cx="35.001" cy="29.167" r="11.667" fill="#FFFFFF"/>
<path d="M53.233,53.368C53.348,53.562 53.312,53.808 53.15,53.964C48.435,58.477 42.041,61.25 35,61.25C27.958,61.25 21.564,58.477 16.85,53.964C16.687,53.809 16.652,53.562 16.766,53.369C20.13,47.663 27.032,43.75 35,43.75C42.968,43.75 49.87,47.662 53.233,53.368Z" clip-rule="evenodd" fill-rule="evenodd" fill="#FFFFFF"/>
</svg>
