<svg width="44" height="42" viewBox="0 0 44 42" fill="none" xmlns="http://www.w3.org/2000/svg" xmlns:xlink="http://www.w3.org/1999/xlink">
<path d="M41.877,3.951C42.678,3.191 42.711,1.925 41.951,1.123C41.191,0.322 39.925,0.289 39.123,1.049L41.877,3.951ZM0.123,38.049C-0.678,38.809 -0.711,40.075 0.049,40.877C0.809,41.678 2.075,41.711 2.877,40.951L0.123,38.049ZM2.877,1.049C2.075,0.289 0.809,0.322 0.049,1.123C-0.711,1.925 -0.678,3.191 0.123,3.951L2.877,1.049ZM39.123,40.951C39.925,41.711 41.191,41.678 41.951,40.877C42.711,40.075 42.678,38.809 41.877,38.049L39.123,40.951ZM39.123,1.049L0.123,38.049L2.877,40.951L41.877,3.951L39.123,1.049ZM0.123,3.951L39.123,40.951L41.877,38.049L2.877,1.049L0.123,3.951Z" fill="#000000"/>
</svg>
