<svg width="50" height="40" viewBox="0 0 50 40" fill="none" xmlns="http://www.w3.org/2000/svg">
<path d="M37.5 40V36H45V30H50V37C50 37.78 49.6 38.48 48.85 39.08C48.1 39.68 47.225 40 46.25 40H37.5ZM12.5 40H3.75C2.775 40 1.9 39.68 1.15 39.08C0.4 38.48 0 37.78 0 37V30H5V36H12.5V40ZM37.5 0H46.25C47.225 0 48.1 0.32 48.85 0.92C49.6 1.52 50 2.22 50 3V10H45V4H37.5V0ZM12.5 0V4H5V10H0V3C0 2.22 0.4 1.52 1.15 0.92C1.9 0.32 2.775 0 3.75 0H12.5ZM27.5 30.5L37.5 25.9V16.72L27.5 21.32V30.5ZM25 17.84L35 13.26L25 8.56L15 13.26L25 17.84ZM12.5 25.9L22.5 30.5V21.32L12.5 16.72V25.9ZM40.575 11.18C41.825 11.82 42.5 12.68 42.5 13.82V26.46C42.5 27.6 41.825 28.46 40.575 29.1L26.875 35.46C25.625 36.1 24.375 36.1 23.125 35.46L9.425 29.1C8.175 28.46 7.5 27.6 7.5 26.46V13.82C7.5 12.68 8.175 11.82 9.425 11.18L23.125 4.82C23.75 4.56 24.375 4.44 25 4.44C25.625 4.44 26.25 4.56 26.875 4.82L40.575 11.18Z" fill="black"/>
</svg>
