<svg width="39" height="43" viewBox="0 0 39 43" fill="none" xmlns="http://www.w3.org/2000/svg">
<path d="M19.5 0C15.5507 0.00628894 11.6967 0.858586 8.44583 2.44459C5.195 4.03059 2.69988 6.27588 1.28924 8.88461C-0.121407 11.4933 -0.381385 14.3431 0.543558 17.0584C1.4685 19.7737 3.53497 22.2271 6.47067 24.0954V43L19.5 36.8571L32.5293 43V24.0954C35.465 22.2271 37.5315 19.7737 38.4564 17.0584C39.3814 14.3431 39.1214 11.4933 37.7108 8.88461C36.3001 6.27588 33.805 4.03059 30.5542 2.44459C27.3033 0.858586 23.4494 0.00628894 19.5 0ZM28.1862 37.2564L21.9104 34.3079L19.5 33.1714L17.0896 34.3079L10.8138 37.2564V26.1839C13.5076 27.1451 16.4827 27.6458 19.5 27.6458C22.5173 27.6458 25.4924 27.1451 28.1862 26.1839V37.2564ZM30.1189 21.5C27.6075 23.2339 24.325 24.2998 20.8287 24.5168C17.3323 24.7337 13.8375 24.0884 10.9375 22.6902C8.0375 21.2921 5.91099 19.2273 4.91896 16.8464C3.92692 14.4655 4.13048 11.9152 5.49508 9.62835C6.85969 7.34153 9.30124 5.45911 12.4053 4.30063C15.5094 3.14216 19.0847 2.77901 22.5243 3.27284C25.9639 3.76667 29.0559 5.08704 31.2755 7.00982C33.495 8.93261 34.7053 11.3393 34.7009 13.8214C34.6984 15.2526 34.2918 16.669 33.5049 17.9875C32.7181 19.3061 31.5669 20.5002 30.1189 21.5Z" fill="black"/>
</svg>
