<svg width="17" height="23" viewBox="0 0 17 23" fill="none" xmlns="http://www.w3.org/2000/svg">
<path d="M0.650078 0.506265C0.233834 0.830525 0 1.27026 0 1.72876C0 2.18726 0.233834 2.62699 0.650078 2.95125L11.6406 11.5104L0.650078 20.0696C0.24563 20.3957 0.021834 20.8325 0.0268928 21.2859C0.0319516 21.7393 0.26546 22.173 0.677125 22.4936C1.08879 22.8141 1.64567 22.996 2.22783 22.9999C2.80999 23.0039 3.37085 22.8296 3.7896 22.5146L16.3499 12.7329C16.7662 12.4087 17 11.9689 17 11.5104C17 11.0519 16.7662 10.6122 16.3499 10.2879L3.7896 0.506265C3.37323 0.182104 2.80859 0 2.21984 0C1.63109 0 1.06645 0.182104 0.650078 0.506265Z" fill="black"/>
</svg>
