<svg width="45" height="39" viewBox="0 0 45 39" fill="none" xmlns="http://www.w3.org/2000/svg">
<path d="M22.5258 7.20296e-05C18.0706 0.000125364 13.7155 1.14513 10.0111 3.2903C6.3068 5.43547 3.41962 8.48446 1.71469 12.0517C0.00976853 15.6189 -0.436324 19.5442 0.432827 23.3312C1.30198 27.1182 3.44733 30.5967 6.59761 33.327C10.8268 36.9684 16.5491 39.0084 22.5107 39C28.4722 38.9915 34.1868 36.9353 38.4023 33.282C42.6177 29.6286 44.9902 24.676 45 19.5093C45.0097 14.3427 42.6558 9.38335 38.4542 5.71807C36.3673 3.89957 33.885 2.45784 31.1509 1.47635C28.4168 0.494856 25.4852 -0.00691761 22.5258 7.20296e-05ZM21.5939 2.63044L12.1099 16.9284L7.02808 9.2588C8.75197 7.30076 10.9489 5.69296 13.465 4.548C15.9811 3.40303 18.7556 2.74857 21.5942 2.63044H21.5939ZM26.9065 12.9942L31.2284 19.4729L26.8794 26.0639H18.1627L13.8458 19.5489L18.1937 12.9942H26.9065ZM5.20189 11.7449L14.6894 26.0639H4.53147C3.42554 23.7805 2.91233 21.3142 3.02818 18.8398C3.14403 16.3653 3.88612 13.9432 5.20189 11.7449ZM6.12355 28.6744H25.1573L20.1218 36.3057C17.2866 35.9981 14.5638 35.1553 12.1453 33.8368C9.72668 32.5183 7.67116 30.7562 6.12355 28.6746V28.6744ZM23.5211 36.4124L32.9732 22.0879L38.0722 29.7315C36.3558 31.6975 34.1639 33.3142 31.6502 34.4683C29.1366 35.6225 26.362 36.2861 23.5211 36.4125V36.4124ZM39.8879 27.2373L30.3863 12.9942H40.5264C41.6237 15.2653 42.1351 17.7167 42.0248 20.177C41.9145 22.6372 41.1852 25.0469 39.8879 27.2373ZM19.9258 10.3836L24.9925 2.7453C27.819 3.06027 30.5319 3.90717 32.9409 5.22663C35.3499 6.54609 37.3968 8.30619 38.9381 10.3836H19.9258Z" fill="black"/>
</svg>
