<svg width="52" height="36" viewBox="0 0 52 36" fill="none" xmlns="http://www.w3.org/2000/svg">
<path d="M26 11.88V35M26 11.88C26 8.072 26 6.168 26.9083 4.7128C27.7065 3.4337 28.9803 2.39351 30.5472 1.7412C32.3333 1 34.6667 1 39.3333 1H46.5556C48.1111 1 48.8889 1 49.4833 1.24707C50.0056 1.46467 50.4278 1.81147 50.6972 2.2376C51 2.72267 51 3.35733 51 4.62667V24.5733C51 25.8427 51 26.4773 50.6944 26.9624C50.429 27.3886 50.0051 27.7354 49.4833 27.9529C48.8917 28.2 48.1139 28.2 46.5611 28.2H38.6917C36.0833 28.2 34.775 28.2 33.5917 28.4947C32.5446 28.7539 31.5705 29.1791 30.725 29.7459C29.7694 30.3873 29.0444 31.2736 27.5972 33.0439L26 35M26 11.88C26 8.072 26 6.168 25.0917 4.7128C24.2927 3.43335 23.0179 2.39313 21.45 1.7412C19.6667 1 17.3333 1 12.6667 1H5.44444C3.88889 1 3.11111 1 2.51667 1.24707C1.99402 1.46438 1.56909 1.81112 1.30278 2.2376C1 2.72267 1 3.35733 1 4.62667V24.5733C1 25.8427 1 26.4773 1.30278 26.9624C1.56909 27.3889 1.99402 27.7356 2.51667 27.9529C3.11111 28.2 3.88611 28.2 5.43889 28.2H13.3083C15.9167 28.2 17.2194 28.2 18.4056 28.4947C19.4528 28.7531 20.4333 29.1792 21.2778 29.7459C22.2306 30.3851 22.95 31.2645 24.3833 33.0235L26 35" stroke="black" stroke-width="2" stroke-linecap="round" stroke-linejoin="round"/>
</svg>
